<svg width="24" height="24" viewBox="0 0 24 24" fill="none" xmlns="http://www.w3.org/2000/svg">
<path d="M14 10.2501C14.9946 10.2501 15.9484 10.6452 16.6517 11.3485C17.3549 12.0517 17.75 13.0056 17.75 14.0001V18.4168H15.5833V14.0001C15.5833 13.5802 15.4165 13.1775 15.1196 12.8805C14.8227 12.5836 14.4199 12.4168 14 12.4168C13.5801 12.4168 13.1773 12.5836 12.8804 12.8805C12.5835 13.1775 12.4167 13.5802 12.4167 14.0001V18.4168H10.25V14.0001C10.25 13.0056 10.6451 12.0517 11.3483 11.3485C12.0516 10.6452 13.0054 10.2501 14 10.2501Z" stroke="url(#paint0_linear_9_5840)" stroke-width="0.5"/>
<path d="M6.25 18.4166V10.9166H8.41667V18.4166H6.25Z" stroke="url(#paint1_linear_9_5840)" stroke-width="0.5"/>
<path d="M8.41667 7.33333C8.41667 7.93164 7.93164 8.41667 7.33333 8.41667C6.73502 8.41667 6.25 7.93164 6.25 7.33333C6.25 6.73502 6.73502 6.25 7.33333 6.25C7.93164 6.25 8.41667 6.73502 8.41667 7.33333Z" stroke="url(#paint2_linear_9_5840)" stroke-width="0.5"/>
<path d="M23.75 12C23.75 18.4893 18.4893 23.75 12 23.75C5.51065 23.75 0.25 18.4893 0.25 12C0.25 5.51065 5.51065 0.25 12 0.25C18.4893 0.25 23.75 5.51065 23.75 12Z" stroke="url(#paint3_linear_9_5840)" stroke-width="0.5"/>
<defs>
<linearGradient id="paint0_linear_9_5840" x1="10.3203" y1="14.3335" x2="18.0006" y2="14.4993" gradientUnits="userSpaceOnUse">
<stop stop-color="#4CC9F0"/>
<stop offset="1" stop-color="#4361EE"/>
</linearGradient>
<linearGradient id="paint1_linear_9_5840" x1="6.10677" y1="14.6666" x2="8.66791" y2="14.6866" gradientUnits="userSpaceOnUse">
<stop stop-color="#4CC9F0"/>
<stop offset="1" stop-color="#4361EE"/>
</linearGradient>
<linearGradient id="paint2_linear_9_5840" x1="6.10677" y1="7.33333" x2="8.66667" y2="7.39323" gradientUnits="userSpaceOnUse">
<stop stop-color="#4CC9F0"/>
<stop offset="1" stop-color="#4361EE"/>
</linearGradient>
<linearGradient id="paint3_linear_9_5840" x1="0.960937" y1="12" x2="24" y2="12.5391" gradientUnits="userSpaceOnUse">
<stop stop-color="#4CC9F0"/>
<stop offset="1" stop-color="#4361EE"/>
</linearGradient>
</defs>
</svg>
